<?xml version="1.0" standalone="no"?><!DOCTYPE svg PUBLIC "-//W3C//DTD SVG 1.1//EN" "http://www.w3.org/Graphics/SVG/1.1/DTD/svg11.dtd"><svg t="1693738831087" class="icon" viewBox="0 0 1024 1024" version="1.1" xmlns="http://www.w3.org/2000/svg" p-id="2870" xmlns:xlink="http://www.w3.org/1999/xlink" width="16" height="16"><path d="M512 980c-96 0-188.2-28.8-266.7-83.4-23.9-16.6-46.4-35.6-66.8-56.3-42.2-42.9-75.3-92.6-98.4-147.8C56.1 635.2 44 574.5 44 512c0-63.2 12.4-124.5 36.8-182.2C104.4 274.1 138.1 224 181.1 181c43-43 93-76.7 148.8-100.3C387.5 56.4 448.8 44 512 44c45.4 0 91.4 6.5 136.6 19.4 74.5 21.2 142.8 61.5 197.5 116.6 54.7 55.1 94.5 123.7 115.3 198.3 15.8 56.7 21.5 114.1 17.1 170.5-4.2 53.8-17.5 106-39.6 155-0.4 0.8-0.8 1.6-1.3 2.5-8.8 17.3-26.9 28.4-46.3 28.4-15.3 0-29-6.6-38.5-17.1v93.7c0 14.1-5.8 27.7-15.9 37.4-17.6 17-36.6 32.7-56.6 46.7C701.4 950.8 608.6 980 512 980zM276.7 789.7c28.2 23.9 59.6 43.3 93.6 57.7 44.8 19 92.5 28.6 141.7 28.6s96.8-9.6 141.7-28.6c34.6-14.7 66.6-34.5 95.2-59v-145h-24v22.2c0 28.7-23.3 52-52 52s-52-23.3-52-52v-22.2H404.7v22.2c0 28.7-23.3 52-52 52s-52-23.3-52-52v-22.2h-24v146.3zM512 148c-49.2 0-96.8 9.6-141.7 28.6-43.3 18.3-82.3 44.6-115.7 78-33.5 33.5-59.7 72.4-78 115.7-19 44.8-28.6 92.5-28.6 141.7 0 45.7 8.3 90.1 24.7 132.1V472.3c0-46.1 37.5-83.6 83.6-83.6h108.4V332c0-28.7 23.4-52.1 52.1-52.1h191.9c28.7 0 52.1 23.4 52.1 52.1v56.6h108.4c46.1 0 83.6 37.5 83.6 83.6v167.9C868.2 599.3 876 556.3 876 512c0-49.2-9.6-96.8-28.6-141.7-18.3-43.3-44.6-82.3-78-115.7s-72.4-59.7-115.7-78c-44.9-19-92.5-28.6-141.7-28.6z m236.8 435.4v-90.8H276.7v90.8h472.1z m-148-194.8v-4.7h-176v4.7h176z" fill="#D2FFDF" p-id="2871"></path><path d="M942.2 383.7c-40.4-145.4-153.8-259.8-299-301.1C339.6-3.7 64 222 64 512c0 122.4 49.1 233.4 128.7 314.2 19.6 19.9 41 38 64 53.9C329.1 930.5 417.1 960 512 960c95.5 0 184.1-29.9 256.8-80.9 19.2-13.5 37.4-28.4 54.2-44.7 6.3-6 9.8-14.4 9.8-23V472.3c0-35.1-28.5-63.6-63.6-63.6H640.8V332c0-17.7-14.4-32.1-32.1-32.1H416.8c-17.7 0-32.1 14.4-32.1 32.1v76.6H256.3c-35.1 0-63.6 28.5-63.6 63.6v253.2c-13.5-20.1-25-41.5-34.5-64-20-47.3-30.2-97.6-30.2-149.4s10.1-102.1 30.2-149.4c19.3-45.7 47-86.8 82.3-122.1s76.4-63 122.1-82.3c47.3-20 97.6-30.2 149.4-30.2 51.9 0 102.1 10.1 149.4 30.2 45.7 19.3 86.8 47 122.1 82.3s63 76.4 82.3 122.1c20 47.3 30.2 97.6 30.2 149.4s-10.1 102.1-30.2 149.4c-0.8 1.8-1.5 3.5-2.3 5.3l0.1 0.1c-2.7 4.7-4.3 10.1-4.3 15.9 0 17.7 14.3 32 32 32 12.7 0 23.6-7.3 28.8-18 0.2-0.3 0.4-0.7 0.6-1.1 41.3-91.7 52.6-199.8 21.5-311.9zM512 896c-51.9 0-102.1-10.1-149.4-30.2-38.9-16.4-74.4-39-105.8-67V620.6v2.8h64v42.2c0 17.7 14.3 32 32 32s32-14.3 32-32v-42.2h256.1v42.2c0 17.7 14.3 32 32 32s32-14.3 32-32v-42.2h64v174.1c-31.8 28.7-67.9 51.7-107.4 68.4-47.4 20-97.6 30.1-149.5 30.1zM404.7 363.9h216v44.7h-216v-44.7z m364.1 108.7v130.8H256.7V472.6h512.1z" fill="#57EACE" p-id="2872"></path><path d="M942.2 383.7c-40.4-145.4-153.8-259.8-299-301.1C339.6-3.7 64 222 64 512c0 122.4 49.1 233.4 128.7 314.2 19.6 19.9 41 38 64 53.9C329.1 930.5 417.1 960 512 960c95.5 0 184.1-29.9 256.8-80.9 19.2-13.5 37.4-28.4 54.2-44.7 6.3-6 9.8-14.4 9.8-23V472.3c0-35.1-28.5-63.6-63.6-63.6H640.8V332c0-17.7-14.4-32.1-32.1-32.1H416.8c-17.7 0-32.1 14.4-32.1 32.1v76.6H256.3c-35.1 0-63.6 28.5-63.6 63.6v253.2c-13.5-20.1-25-41.5-34.5-64-20-47.3-30.2-97.6-30.2-149.4s10.1-102.1 30.2-149.4c19.3-45.7 47-86.8 82.3-122.1s76.4-63 122.1-82.3c47.3-20 97.6-30.2 149.4-30.2 51.9 0 102.1 10.1 149.4 30.2 45.7 19.3 86.8 47 122.1 82.3s63 76.4 82.3 122.1c20 47.3 30.2 97.6 30.2 149.4s-10.1 102.1-30.2 149.4c-0.8 1.8-1.5 3.5-2.3 5.3l0.1 0.1c-2.7 4.7-4.3 10.1-4.3 15.9 0 17.7 14.3 32 32 32 12.7 0 23.6-7.3 28.8-18 0.2-0.3 0.4-0.7 0.6-1.1 41.3-91.7 52.6-199.8 21.5-311.9zM512 896c-51.9 0-102.1-10.1-149.4-30.2-38.9-16.4-74.4-39-105.8-67V620.6v2.8h64v42.2c0 17.7 14.3 32 32 32s32-14.3 32-32v-42.2h256.1v42.2c0 17.7 14.3 32 32 32s32-14.3 32-32v-42.2h64v174.1c-31.8 28.7-67.9 51.7-107.4 68.4-47.4 20-97.6 30.1-149.5 30.1zM404.7 363.9h216v44.7h-216v-44.7z m364.1 108.7v130.8H256.7V472.6h512.1z" fill="#57EACE" p-id="2873"></path></svg>