<?xml version="1.0" standalone="no"?><!DOCTYPE svg PUBLIC "-//W3C//DTD SVG 1.1//EN" "http://www.w3.org/Graphics/SVG/1.1/DTD/svg11.dtd"><svg t="1689152568130" class="icon" viewBox="0 0 1024 1024" version="1.1" xmlns="http://www.w3.org/2000/svg" p-id="22596" xmlns:xlink="http://www.w3.org/1999/xlink" width="64" height="64"><path d="M512 512m-512 0a512 512 0 1 0 1024 0 512 512 0 1 0-1024 0Z" fill="#33C7FC" p-id="22597"></path><path d="M324.408781 655.018925C505.290126 655.018925 651.918244 508.387706 651.918244 327.509463c0-152.138029-103.733293-280.047334-244.329811-316.853972C205.813923 52.463528 47.497011 213.017581 8.987325 415.981977 47.587706 553.880127 174.183098 655.018925 324.408781 655.018925z" fill="#FFFFFF" fill-opacity=".2" p-id="22598"></path><path d="M512 1024c282.766631 0 512-229.233369 512-512 0-31.765705-2.891385-62.853911-8.433853-93.018889C928.057169 336.0999 809.874701 285.26268 679.824375 285.26268c-269.711213 0-488.357305 218.645317-488.357305 488.357305 0 54.959576 9.084221 107.802937 25.822474 157.10377C300.626556 989.489417 402.283167 1024 512 1024z" fill="#FFFFFF" fill-opacity=".15" p-id="22599"></path><path d="M732.535958 756.566238c36.389596 0 65.889478-29.499882 65.889477-65.889478 0 36.389596 29.502983 65.889478 65.889478 65.889478-17.053747 0-65.889478 29.502983-65.889478 65.889477 0-36.386495-29.499882-65.889478-65.889477-65.889477zM159.685087 247.279334c25.686819 0 46.51022-20.8234 46.51022-46.51022 0 25.686819 20.8234 46.51022 46.510219 46.51022-12.03607 0-46.51022 20.8234-46.510219 46.510219 0-25.686819-20.8234-46.51022-46.51022-46.510219z" fill="#FFFFFF" fill-opacity=".5" p-id="22600"></path><path d="M206.195307 333.32324c8.562531 0 15.503407-6.940875 15.503406-15.503407 0 8.562531 6.940875 15.503407 15.503407 15.503407-4.012282 0-15.503407 6.940875-15.503407 15.503406 0-8.562531-6.940875-15.503407-15.503406-15.503406z" fill="#FFFFFF" fill-opacity=".3" p-id="22601"></path><path d="M292.239213 292.239213m95.34595 0l248.829674 0q95.34595 0 95.34595 95.34595l0 248.829674q0 95.34595-95.34595 95.34595l-248.829674 0q-95.34595 0-95.34595-95.34595l0-248.829674q0-95.34595 95.34595-95.34595Z" fill="#FFFFFF" p-id="22602"></path><path d="M412.390613 453.47464m-27.906132 0a27.906132 27.906132 0 1 0 55.812264 0 27.906132 27.906132 0 1 0-55.812264 0Z" fill="#51CFFC" p-id="22603"></path><path d="M615.485238 453.47464m-27.906131 0a27.906132 27.906132 0 1 0 55.812263 0 27.906132 27.906132 0 1 0-55.812263 0Z" fill="#51CFFC" p-id="22604"></path><path d="M377.566861 564.896848c3.535552-6.604451 11.757008-9.091973 18.362235-5.555646 8.800509 4.711485 16.568491 10.022952 24.275234 15.29256 21.608648 14.774746 42.739791 29.223921 84.821463 29.223922 43.2359 0 64.343788-15.415812 85.132305-30.598299 6.457944-4.716136 12.884881-9.409793 19.934281-13.611991 6.435464-3.835543 14.762344-1.72863 18.598661 4.706835 3.835543 6.435464 1.72863 14.762344-4.706834 18.598661-4.633193 2.761157-9.5563 6.39593-15.022801 10.431467C587.634144 609.129617 558.026513 630.988645 505.025793 630.988645c-51.316276 0-81.37273-20.687746-103.905381-36.196578-6.518407-4.486686-12.406601-8.539276-17.997905-11.532984-6.604451-3.535552-9.091973-11.757008-5.555646-18.362235z" fill="#51CFFC" p-id="22605"></path></svg>