<?xml version="1.0" standalone="no"?><!DOCTYPE svg PUBLIC "-//W3C//DTD SVG 1.1//EN" "http://www.w3.org/Graphics/SVG/1.1/DTD/svg11.dtd"><svg t="1692267677425" class="icon" viewBox="0 0 1094 1024" version="1.1" xmlns="http://www.w3.org/2000/svg" p-id="24773" xmlns:xlink="http://www.w3.org/1999/xlink" width="34.1875" height="32"><path d="M247.180535 0h570.350345l266.610759 265.163034V1024H247.180535z" fill="#FBFCFE" p-id="24774"></path><path d="M820.973639 0v274.025931h263.168v17.655172H803.318466V0z" fill="#6B6C70" p-id="24775"></path><path d="M817.53088 0l266.610759 265.163034V1024H247.180535V0h570.350345z m-7.291586 17.655172H264.835708v988.689656h801.668413V272.542897L810.239294 17.655172z" fill="#6B6C70" p-id="24776"></path><path d="M583.864673 441.37931h300.137931v52.965518h-300.137931zM583.864673 600.275862h300.137931v52.965517h-300.137931zM583.864673 759.172414h300.137931v52.965517h-300.137931zM491.545777 406.068966h35.222069v406.068965h-35.222069z" fill="#CEDDBA" p-id="24777"></path><path d="M789.459156 458.857931v35.310345H564.09088v-35.310345zM789.459156 617.754483v35.310345H564.09088v-35.310345zM789.459156 776.651034v35.310345H564.09088v-35.310345zM526.926742 409.776552v84.391724h-87.940414v-35.310345h52.612414l0.017655-49.081379zM526.926742 568.673103v84.391725h-87.940414v-35.310345h52.612414l0.017655-49.08138z" fill="#808000" p-id="24778"></path><path d="M945.725087 882.758621l0.123586 17.655172-573.793103 3.937104-0.123587-17.655173zM910.079294 300.137931l0.176552 17.655172-414.596414 3.937104-0.158897-17.655173z" fill="#C0C5CD" p-id="24779"></path><path d="M803.318466 177.222621v17.655172H384.361225v705.800828h-17.655173V177.222621zM951.515983 291.522207v597.53931h-17.655172V291.522207z" fill="#ABC1F7" p-id="24780"></path><path d="M526.926742 727.569655v84.391724h-87.940414v-35.310345h52.612414l0.017655-49.081379z" fill="#808000" p-id="24781"></path><path d="M406.024121 370.758621a17.655172 17.655172 0 0 1 17.655173 17.655172v75.352276c14.353655 6.214621 27.948138 13.806345 40.642207 22.598621l63.699862-42.778483a17.655172 17.655172 0 0 1 24.470069 4.766896l79.307034 117.106759a17.655172 17.655172 0 0 1-4.766896 24.558345l-65.677242 44.137931a235.714207 235.714207 0 0 1 0 91.17131l65.677242 44.102621 0.017655 0.017655a17.655172 17.655172 0 0 1 5.808552 22.775173l-1.059311 1.765517-79.307034 117.124414a17.655172 17.655172 0 0 1-22.545655 5.879172l-1.924414-1.129931-63.699862-42.796138c-12.694069 8.809931-26.306207 16.401655-40.624552 22.616276V971.034483a17.655172 17.655172 0 0 1-17.655172 17.655172H264.129501a17.655172 17.655172 0 0 1-17.655173-17.655172v-70.850207a235.820138 235.820138 0 0 1-46.221241-23.357793L142.132259 915.862069a17.655172 17.655172 0 0 1-24.470069-4.766897l-79.307034-117.124413a17.655172 17.655172 0 0 1 4.766896-24.54069l55.913931-37.570207a235.343448 235.343448 0 0 1-5.826206-52.135724c0-17.92 2.030345-35.36331 5.826206-52.135724L43.122052 590.035862h-0.017655a17.655172 17.655172 0 0 1-5.808551-22.775172l1.05931-1.765518 79.307034-117.142069a17.655172 17.655172 0 0 1 22.545656-5.861517l1.924413 1.112276 58.120828 39.035586a235.820138 235.820138 0 0 1 46.221241-23.357793V388.413793a17.655172 17.655172 0 0 1 17.655173-17.655172h141.89462z m-88.61131 211.862069a88.275862 88.275862 0 1 0 0 176.551724 88.275862 88.275862 0 0 0 0-176.551724z" fill="#FFEEBE" p-id="24782"></path><path d="M406.024121 335.448276a52.965517 52.965517 0 0 1 52.877242 49.858207l0.088276 3.10731 0.017655 53.336276 2.736552 1.465379 1.906758 1.094621 44.685242-30.031448a52.965517 52.965517 0 0 1 69.420137 9.092413l2.100966 2.56 1.889103 2.612966 79.28938 117.124414a52.965517 52.965517 0 0 1-11.546483 71.68l-2.771862 1.977379-47.13931 31.70869 0.247172 2.277517 0.706207 8.756966 0.441379 8.809931 0.141242 8.845241c0 5.914483-0.176552 11.793655-0.564966 17.655172l-0.706207 8.756966-0.264827 2.295172 47.13931 31.691035a53.036138 53.036138 0 0 1 18.90869 65.377103l-1.447725 3.00138-0.988689 1.783172-2.153931 3.495724-79.28938 117.124414a52.965517 52.965517 0 0 1-64.723862 18.996965l-3.001379-1.394758-1.924414-1.059311-1.906758-1.112275-1.853793-1.165242-44.667587-30.013793-1.924413 1.076966-2.736552 1.483034V971.034483a52.965517 52.965517 0 0 1-46.786207 52.612414l-3.072 0.264827-3.124966 0.088276H264.129501a52.965517 52.965517 0 0 1-52.877242-49.858207L211.163983 971.034483v-47.598345l-4.378482-2.153931-3.795862-1.942069-1.483035-0.812138-39.688827 26.65931a52.965517 52.965517 0 0 1-69.420138-9.110069l-2.083311-2.56-1.889103-2.612965-79.307035-117.124414a52.965517 52.965517 0 0 1 11.546483-71.68l2.771862-1.977379 36.846345-24.752552-0.176552-1.094621a270.918621 270.918621 0 0 1-1.641931-17.196138l-0.406069-8.651034-0.141241-8.704c0-8.721655 0.406069-17.390345 1.235862-25.988414l0.953379-8.562758 0.176552-1.076966-36.846345-24.770207a53.036138 53.036138 0 0 1-18.891034-65.377103l1.430069-3.00138 0.988689-1.783172 2.153931-3.495724 79.307035-117.124414a52.965517 52.965517 0 0 1 64.723862-18.996966l2.983724 1.412414 1.942069 1.041655 1.889103 1.112276 1.853794 1.165242 39.688827 26.65931 1.483035-0.812138 3.795862-1.942069 4.378482-2.153931V388.413793a52.965517 52.965517 0 0 1 46.786207-52.612414l3.072-0.264827 3.107311-0.088276h141.89462z m-141.89462 35.310345a17.655172 17.655172 0 0 0-17.531587 15.589517L246.474328 388.413793v70.850207c-13.612138 5.102345-26.641655 11.405241-38.929655 18.802759l-7.273931 4.555034-58.138483-39.035586-1.906758-1.112276a17.531586 17.531586 0 0 0-6.126345-1.800828l-2.08331-0.088275a17.655172 17.655172 0 0 0-13.011863 6.002758l-1.341793 1.765517-79.307034 117.124414-1.05931 1.765517a17.655172 17.655172 0 0 0 4.043034 21.398069l1.800828 1.377104 55.896275 37.570207a235.343448 235.343448 0 0 0-5.826206 52.135724c0 15.36 1.50069 30.366897 4.307862 44.914759l1.518344 7.220965-55.966896 37.605517a17.655172 17.655172 0 0 0-5.773241 22.739862l1.05931 1.765518 79.307034 117.142069c3.354483 4.943448 8.792276 7.662345 14.353656 7.75062l2.08331-0.088276a17.531586 17.531586 0 0 0 6.126345-1.800827l1.906758-1.112276 58.138483-39.035586c11.987862 7.821241 24.717241 14.583172 38.099862 20.144551l8.103724 3.213242V971.034483a17.655172 17.655172 0 0 0 15.589518 17.531586l2.065655 0.123586h141.89462l2.065656-0.123586a17.655172 17.655172 0 0 0 15.483586-15.465931l0.105931-2.065655v-75.352276a235.99669 235.99669 0 0 0 34.233379-18.308414l6.426483-4.307862 63.699862 42.796138 1.906759 1.129931c2.59531 1.306483 5.420138 1.924414 8.192 1.871448l2.08331-0.158896a17.619862 17.619862 0 0 0 10.928552-5.826207l1.359448-1.765517 79.289379-117.124414 1.059311-1.765517a17.655172 17.655172 0 0 0-4.02538-21.415725l-1.800827-1.377103-65.659587-44.137931a235.714207 235.714207 0 0 0 1.588966-82.237793l-1.588966-8.915862 65.712552-44.137931a17.655172 17.655172 0 0 0 5.773242-22.775173l-1.059311-1.765517-79.289379-117.124414a17.619862 17.619862 0 0 0-12.288-7.591724l-2.08331-0.176552a17.549241 17.549241 0 0 0-8.192 1.889104l-1.906759 1.129931-63.699862 42.796138c-10.593103-7.344552-21.786483-13.841655-33.544828-19.403035l-7.097379-3.213241V388.413793a17.655172 17.655172 0 0 0-15.607172-17.531586L406.024121 370.758621H264.129501z" fill="#C08C00" p-id="24783"></path><path d="M335.456397 564.965517a105.931034 105.931034 0 1 0 0 211.862069 105.931034 105.931034 0 0 0 0-211.862069z m0 35.310345a70.62069 70.62069 0 1 1 0 141.241379 70.62069 70.62069 0 0 1 0-141.241379z" fill="#C08C00" p-id="24784"></path></svg>